<svg width="500" height="500" viewBox="0 0 500 500" fill="none" xmlns="http://www.w3.org/2000/svg">
<rect width="500" height="500" fill="#000D20"/>
<path d="M103.831 306.016C102.432 306.016 101.733 305.316 101.733 303.918V226.136L94.098 226.22C92.699 226.22 92 225.521 92 224.123V196.266C92 194.867 92.699 194.168 94.098 194.168H133.534C134.932 194.168 135.632 194.867 135.632 196.266V303.918C135.632 305.316 134.932 306.016 133.534 306.016H103.831Z" fill="white"/>
<path d="M147.51 306.016C146.503 306.016 145.748 305.764 145.244 305.26C144.797 304.701 144.573 304.002 144.573 303.163V197.105C144.573 196.266 144.797 195.594 145.244 195.091C145.748 194.531 146.503 194.252 147.51 194.252L221.5 194C222.451 194 223.334 194.28 223.837 194.839C224.341 195.343 221.5 196.014 221.5 196.853L250.909 250.008L220.5 303.163C220.5 304.002 222.003 304.701 221.5 305.26C220.997 305.764 221.451 306.016 220.5 306.016H147.51ZM177.38 276.564H185.855V223.535H177.38V276.564Z" fill="white"/>
<path d="M329.5 306C328.101 306 330 305.149 330 303.75L295.484 249.924L326.02 196.25C326.02 194.851 328.101 194 329.5 194H383.408C384.863 194 385.981 194.364 386.765 195.091L406.063 214.222C406.678 214.781 407.07 215.256 407.238 215.648C407.406 216.04 407.49 216.683 407.49 217.578V240.568C407.49 241.295 407.042 242.107 406.147 243.002L394.903 254.245L392.218 256.594L398.008 264.985L408.329 285.207C408.608 285.71 408.776 286.214 408.832 286.717C408.944 287.165 409 287.724 409 288.395V303.75C409 305.149 408.301 305.848 406.902 305.848H380.975C379.744 305.848 378.905 305.288 378.458 304.17L366.711 273.292H364.613V303.75C364.613 305.149 363.914 306 362.515 306H329.5ZM369.144 240.233C371.773 240.233 373.815 239.477 375.269 237.967C376.724 236.457 377.451 234.359 377.451 231.674C377.451 228.989 376.724 226.919 375.269 225.465C373.815 223.955 371.773 223.2 369.144 223.2C366.571 223.2 364.557 223.955 363.103 225.465C361.648 226.919 360.921 228.989 360.921 231.674C360.921 234.359 361.648 236.457 363.103 237.967C364.557 239.477 366.571 240.233 369.144 240.233Z" fill="white"/>
<path d="M251.168 195L273.163 228.634L273.99 229.898L274.831 228.644L297.369 195H329V226.477L296.27 248.904L295.065 249.729L296.27 250.555L329 272.981V305H297.891L274.812 272.952L273.98 271.798L273.176 272.97L251.183 305H219V272.442L251.184 250.557L252.415 249.719L251.174 248.896L219 227.55V195H251.168Z" fill="url(#paint0_linear)" stroke="url(#paint1_linear)" stroke-width="2"/>
<defs>
<linearGradient id="paint0_linear" x1="330" y1="305.293" x2="218" y2="194.707" gradientUnits="userSpaceOnUse">
<stop stop-color="#1065BA"/>
<stop offset="1" stop-color="#559EFF"/>
</linearGradient>
<linearGradient id="paint1_linear" x1="218" y1="194.327" x2="330" y2="305.673" gradientUnits="userSpaceOnUse">
<stop stop-color="#006EC8"/>
<stop offset="1" stop-color="#66ABFF"/>
</linearGradient>
</defs>
</svg>
